HIERARCHY
ROOT Hips
{
 OFFSET 0.000000 0.000000 0.000000
 CHANNELS 6 Xposition Yposition Zposition Yrotation Xrotation Zrotation
 JOINT Chest
 {
  OFFSET 0.000000 9.585900 0.002600
  CHANNELS 3 Yrotation Xrotation Zrotation
  JOINT Chest2
  {
   OFFSET 0.000000 9.601200 -0.005300
   CHANNELS 3 Yrotation Xrotation Zrotation
   JOINT Chest3
   {
    OFFSET 0.000000 9.561800 0.000000
    CHANNELS 3 Yrotation Xrotation Zrotation
    JOINT Chest4
    {
     OFFSET 0.000000 9.552100 0.000000
     CHANNELS 3 Yrotation Xrotation Zrotation
     JOINT Neck
     {
      OFFSET 0.000000 14.453000 0.000000
      CHANNELS 3 Yrotation Xrotation Zrotation
      JOINT Head
      {
       OFFSET 0.000000 8.936500 -0.011300
       CHANNELS 3 Yrotation Xrotation Zrotation
       End Site
       {
        OFFSET 0.000000 17.073600 -0.006000
       }
      }
     }
     JOINT RightCollar
     {
      OFFSET -2.921100 9.558500 0.000000
      CHANNELS 3 Yrotation Xrotation Zrotation
      JOINT RightShoulder
      {
       OFFSET -13.519700 0.000000 0.000000
       CHANNELS 3 Yrotation Xrotation Zrotation
       JOINT RightElbow
       {
        OFFSET 0.000000 -29.696600 0.000000
        CHANNELS 3 Yrotation Xrotation Zrotation
        JOINT RightWrist
        {
         OFFSET 0.000000 -24.004700 0.000000
         CHANNELS 3 Yrotation Xrotation Zrotation
         End Site
         {
          OFFSET 0.000000 -17.728500 0.000000
         }
        }
       }
      }
     }
     JOINT LeftCollar
     {
      OFFSET 2.921100 9.558500 0.000000
      CHANNELS 3 Yrotation Xrotation Zrotation
      JOINT LeftShoulder
      {
       OFFSET 13.519700 0.000000 0.000000
       CHANNELS 3 Yrotation Xrotation Zrotation
       JOINT LeftElbow
       {
        OFFSET 0.000000 -29.696600 0.000000
        CHANNELS 3 Yrotation Xrotation Zrotation
        JOINT LeftWrist
        {
         OFFSET 0.000000 -24.004700 0.000000
         CHANNELS 3 Yrotation Xrotation Zrotation
         End Site
         {
          OFFSET 0.000000 -17.728500 0.000000
         }
        }
       }
      }
     }
    }
   }
  }
 }
 JOINT RightHip
 {
  OFFSET -7.771700 -0.012900 -0.001300
  CHANNELS 3 Yrotation Xrotation Zrotation
  JOINT RightKnee
  {
   OFFSET 0.000000 -40.869800 0.001200
   CHANNELS 3 Yrotation Xrotation Zrotation
   JOINT RightAnkle
   {
    OFFSET 0.000000 -39.717900 0.002100
    CHANNELS 3 Yrotation Xrotation Zrotation
    JOINT RightToe
    {
     OFFSET 0.000000 -4.965400 11.033500
     CHANNELS 3 Yrotation Xrotation Zrotation
     End Site
     {
      OFFSET 0.000000 -1.423100 5.872300
     }
    }
   }
  }
 }
 JOINT LeftHip
 {
  OFFSET 7.771700 -0.012900 -0.001300
  CHANNELS 3 Yrotation Xrotation Zrotation
  JOINT LeftKnee
  {
   OFFSET 0.000000 -40.869800 0.001200
   CHANNELS 3 Yrotation Xrotation Zrotation
   JOINT LeftAnkle
   {
    OFFSET 0.000000 -39.717900 0.002100
    CHANNELS 3 Yrotation Xrotation Zrotation
    JOINT LeftToe
    {
     OFFSET 0.000000 -4.965400 11.033500
     CHANNELS 3 Yrotation Xrotation Zrotation
     End Site
     {
      OFFSET 0.000000 -1.423100 5.872300
     }
    }
   }
  }
 }
}
MOTION
Frames: 9
Frame Time: 0.008333
0.000000 85.388000 0.000000 0.000000 -5.767877 0.000000 0.000000 11.653817 0.000000 0.000000 -5.885947 0.000000 0.000000 -0.000000 0.000000 0.000000 -0.000000 0.000000 0.000000 12.528835 0.000000 0.000000 0.711642 0.000000 0.000000 -0.000000 0.000000 0.000000 0.000000 -90.000000 0.000000 -2.309062 0.000000 0.000000 2.309062 0.000000 0.000000 -0.000000 0.000000 0.000000 -0.000000 90.000000 0.000000 -2.309062 0.000000 0.000000 2.309062 0.000000 0.000000 8.520406 0.000000 0.000000 1.905762 0.000000 -0.000000 -4.658285 0.000000 0.000000 -0.000000 0.000000 0.000000 8.520406 0.000000 0.000000 1.905762 0.000000 -0.000000 -4.658285 0.000000 0.000000 -0.000000 0.000000
8.144451 49.950673 45.945250 172.988926 -35.650374 -6.657778 7.476320 23.253831 7.673992 0.984141 3.710459 0.824063 1.604147 6.045479 1.369817 5.969778 19.482107 5.252891 -2.961064 17.792852 1.682571 -6.007763 -2.607070 4.075182 -0.324230 -6.541628 -8.639428 17.440455 -14.386902 -5.833919 177.657144 -48.805361 179.896020 -11.167807 -19.980049 10.997733 -18.052490 -2.260752 2.897834 -3.498025 -25.073573 2.637992 159.079430 -50.615886 -170.480611 48.095406 -9.787234 -17.948675 -2.335061 -44.910777 11.658633 -100.467692 85.753616 -87.993214 -2.354759 -10.776966 -6.535640 -0.202010 0.852230 -0.092081 -7.671338 -49.113596 15.549833 -144.607152 80.062705 -151.870144 1.799660 -15.759539 8.698959 -0.466624 -1.010000 -0.209009
8.142071 49.950765 45.937292 172.970483 -35.629622 -6.632319 7.484559 23.304812 7.665121 0.987164 3.749348 0.828076 1.606695 6.047877 1.366693 5.970013 19.446500 5.238065 -2.980220 17.888181 1.716020 -6.040596 -2.562019 4.130305 -0.378813 -6.402245 -8.562575 17.437519 -14.448470 -5.827846 177.528439 -48.635822 -179.968852 -11.134690 -19.991978 11.145473 -18.083853 -2.035361 2.862431 -3.306317 -25.085778 2.640773 158.949026 -50.275950 -170.447959 48.139600 -9.770214 -18.048694 -2.331296 -44.928228 11.635611 -100.632544 85.769925 -88.154095 -2.353705 -10.789192 -6.555480 -0.210723 0.850616 -0.091047 -7.592073 -49.132203 15.495253 -144.594492 80.060962 -151.833949 1.790388 -15.793506 8.716301 -0.464935 -0.982849 -0.208786
8.136312 49.950659 45.927288 172.977890 -35.603965 -6.603745 7.460030 23.319989 7.629684 0.981628 3.820832 0.834372 1.609198 6.050258 1.363072 5.966465 19.519321 5.234181 -3.000970 17.868422 1.738750 -6.087722 -2.528327 4.183880 -0.418664 -6.361836 -8.490841 17.435530 -14.528435 -5.813709 177.379126 -48.515029 -179.816749 -11.088950 -20.027492 11.340198 -18.103500 -1.904901 2.846598 -3.080949 -25.098112 2.628653 158.910367 -49.927261 -170.476371 48.165914 -9.723037 -18.245788 -2.328563 -44.948572 11.584806 -100.819167 85.789047 -88.336049 -2.367927 -10.783235 -6.583897 -0.185271 0.828179 -0.077641 -7.539623 -49.156854 15.430748 -144.589738 80.052828 -151.820771 1.747204 -15.833061 8.732285 -0.421458 -0.951187 -0.198960
8.142114 49.956168 45.911871 172.893663 -35.632924 -6.590610 7.545496 23.371594 7.672737 0.978841 3.866823 0.838096 1.609480 6.072904 1.362794 5.954159 19.591345 5.227244 -3.027728 17.838532 1.757899 -6.152661 -2.513270 4.232931 -0.454189 -6.313712 -8.414236 17.442864 -14.621671 -5.792908 177.207730 -48.451812 -179.651118 -11.028597 -20.088502 11.556513 -18.117359 -1.760275 2.830460 -2.812839 -25.109192 2.597016 158.955999 -49.579183 -170.556630 48.168691 -9.635191 -18.553955 -2.301512 -44.922546 11.630368 -100.965310 85.799655 -88.480448 -2.324025 -10.794489 -6.589339 -0.186334 0.833365 -0.087073 -7.449008 -49.119303 15.428845 -144.515106 80.018106 -151.719469 1.842201 -15.883031 8.758959 -0.470501 -0.954577 -0.233895
8.139687 49.956516 45.900001 172.877150 -35.611113 -6.573414 7.548748 23.416782 7.666122 0.984439 3.875697 0.837145 1.608748 6.093669 1.362497 5.941907 19.624502 5.217575 -3.069506 17.833228 1.773393 -6.234944 -2.519459 4.275412 -0.498567 -6.222860 -8.331706 17.464521 -14.725549 -5.769571 177.012675 -48.463665 -179.478106 -10.956030 -20.172693 11.768100 -18.137340 -1.568122 2.804364 -2.501066 -25.116857 2.549635 159.076930 -49.249319 -170.682582 48.150576 -9.512456 -18.976781 -2.292497 -44.942679 11.617824 -101.130278 85.809781 -88.641697 -2.329477 -10.804604 -6.591903 -0.182123 0.829803 -0.089410 -7.395799 -49.132843 15.378699 -144.494047 80.011267 -151.680176 1.877696 -15.936060 8.776587 -0.475145 -0.925391 -0.251233
8.137005 49.957535 45.885725 172.864687 -35.600822 -6.556556 7.562599 23.523316 7.668356 0.987244 3.828051 0.830721 1.607661 6.112666 1.362020 5.929538 19.655002 5.208149 -3.119842 17.814921 1.780976 -6.331060 -2.549649 4.306939 -0.546671 -6.127359 -8.252035 17.498961 -14.841731 -5.743743 176.807503 -48.570297 -179.311347 -10.880908 -20.273812 11.957079 -18.155730 -1.374536 2.775302 -2.153348 -25.115189 2.489986 159.268103 -48.957433 -170.842840 48.120343 -9.368154 -19.505085 -2.313183 -44.946564 11.594975 -101.468542 85.848931 -88.979917 -2.302207 -10.806455 -6.612078 -0.206379 0.811887 -0.100595 -7.369854 -49.141722 15.351965 -144.419490 79.981424 -151.601489 1.900353 -15.955397 8.775281 -0.477055 -0.932449 -0.242624
8.132526 49.960510 45.866419 172.882184 -35.617200 -6.541368 7.545509 23.596011 7.650166 0.987891 3.809421 0.828185 1.605788 6.161318 1.364469 5.918501 19.683994 5.198525 -3.176938 17.782102 1.778885 -6.437164 -2.606988 4.323823 -0.600638 -6.031453 -8.180950 17.544745 -14.971366 -5.710759 176.611199 -48.786866 -179.164747 -10.813326 -20.377710 12.112028 -18.171466 -1.193384 2.745740 -1.785970 -25.099064 2.419886 159.526182 -48.719580 -171.020491 48.073562 -9.220557 -20.109058 -2.306913 -44.924013 11.541832 -101.964175 85.869828 -89.449858 -2.324977 -10.834055 -6.648773 -0.172246 0.799027 -0.085740 -7.336543 -49.117182 15.274671 -144.412078 79.965374 -151.581729 1.938081 -15.994104 8.779664 -0.482790 -0.925949 -0.249640
8.125054 49.958229 45.851868 172.889420 -35.590947 -6.501609 7.518603 23.601176 7.601913 0.988100 3.817151 0.828919 1.604294 6.205212 1.363871 5.911654 19.712348 5.187837 -3.237908 17.736045 1.769446 -6.548856 -2.689064 4.329242 -0.662737 -5.943068 -8.117812 17.606164 -15.111762 -5.665389 176.446381 -49.127262 -179.053325 -10.750512 -20.464167 12.224817 -18.186456 -1.031556 2.720429 -1.426716 -25.069191 2.342128 159.842887 -48.546262 -171.207888 47.980108 -9.083507 -20.732579 -2.281025 -44.949342 11.474595 -102.322678 85.884313 -89.798958 -2.348494 -10.868435 -6.662368 -0.145716 0.805768 -0.076184 -7.315978 -49.124413 15.178810 -144.553000 79.991033 -151.730093 1.993828 -16.056367 8.791557 -0.514825 -0.895804 -0.268182
